<svg xmlns="http://www.w3.org/2000/svg" viewBox="0 0 639.09 105.52"><defs><style>.cls-1{fill:#009286;}.cls-2{fill:#38b4ac;}.cls-3{fill:#fedb64;}.cls-4{fill:#fec750;}.cls-5{fill:#009387;}.cls-6{fill:teal;}</style></defs><title>Asset 4</title><g id="Layer_2" data-name="Layer 2"><g id="Layer_2-2" data-name="Layer 2"><path class="cls-1" d="M251.25,105.46h-20.9a2,2,0,0,1-2-2V2.07a2,2,0,0,1,2-2h20.9a2,2,0,0,1,2,2V103.43A2,2,0,0,1,251.25,105.46Z"/><path class="cls-1" d="M347.63,69.33a2,2,0,0,1,2,2.19A36.53,36.53,0,0,1,344,88.24,35.2,35.2,0,0,1,329,101a51.51,51.51,0,0,1-22,4.5q-20.4,0-32.14-13.17T263.09,55.11V50q0-15.07,5.29-26.38A39.88,39.88,0,0,1,283.64,6.2a42.87,42.87,0,0,1,23-6.17Q325.52,0,337,9.86,347.66,19,349.74,34.67a2,2,0,0,1-2,2.27H327a2,2,0,0,1-2-1.83q-.63-8-4.67-11.62-4.47-4.09-13.65-4.09T293,26.3q-4.35,6.92-4.56,22.05V55.6q0,16.41,4.16,23.45t14.33,7q8.61,0,13.16-4,4.06-3.58,4.73-10.94a2,2,0,0,1,2-1.81Z"/><path class="cls-1" d="M448.2,54.86q0,15-5.62,26.57a41.22,41.22,0,0,1-16,17.8A44.85,44.85,0,0,1,403,105.46a45.38,45.38,0,0,1-23.47-6,41.17,41.17,0,0,1-16-17.23,58.32,58.32,0,0,1-6-25.73V50.71q0-15.09,5.58-26.61a41.18,41.18,0,0,1,16-17.79A45.11,45.11,0,0,1,402.9,0a44.62,44.62,0,0,1,23.47,6.21,42,42,0,0,1,16,17.65q5.71,11.46,5.79,26.25Zm-25.39-4.3q0-15.29-5.15-23.22a16.6,16.6,0,0,0-14.76-7.93q-18.78,0-19.84,27.91L383,54.86Q383,70,388,78.05t15,8.1a16.34,16.34,0,0,0,14.58-8q5.11-8,5.19-22.9Z"/><path class="cls-1" d="M614.13,76.78a10.12,10.12,0,0,0-3.88-8.46q-3.87-3-13.62-6.27a131.93,131.93,0,0,1-15.93-6.27Q560.57,46,560.58,28.86a24,24,0,0,1,5-15A32.44,32.44,0,0,1,579.78,3.66,55.62,55.62,0,0,1,600.4,0a48.66,48.66,0,0,1,20,4,31.59,31.59,0,0,1,13.76,11.24A28.82,28.82,0,0,1,639,29.77a2,2,0,0,1-2,2.12H616.1a2,2,0,0,1-2-1.83,11.69,11.69,0,0,0-3.79-7.9q-3.87-3.45-10.49-3.45t-10.56,2.92a9,9,0,0,0-3.87,7.44c0,2.63,1.42,5,4.26,7.15s7.85,4.35,15,6.63a92.59,92.59,0,0,1,17.64,7.36q16.79,9.59,16.78,26.43,0,13.45-10.24,21.14t-28.09,7.68A56.29,56.29,0,0,1,578,101q-10.2-4.47-15.36-12.26a31.24,31.24,0,0,1-5.09-15.83,2,2,0,0,1,2-2.11h21a2,2,0,0,1,2,1.87c.3,4.56,1.71,8,4.24,10.29q4.31,3.9,14,3.91,6.18,0,9.78-2.64A8.72,8.72,0,0,0,614.13,76.78Z"/><rect class="cls-1" x="518.68" y="0.03" width="26.21" height="105.41" rx="2.09"/><rect class="cls-1" x="460.04" y="0.11" width="26.21" height="105.41" rx="2.03"/><path class="cls-2" d="M544.68,104.29a1.84,1.84,0,0,1-1.69,1.16H520.65a2.09,2.09,0,0,1-1.79-1.13C512.63,93.16,462.11,2.56,461.61,1.69A1.77,1.77,0,0,0,460.38,1a1.82,1.82,0,0,1,1.46-.86h22.57a1.84,1.84,0,0,1,1.6,1l56.27,100.77A5,5,0,0,0,544.68,104.29Z"/><path class="cls-3" d="M544.44,2.69H545c0,5.31,0,10.61-.1,15.93,0,1.44.27,1.69,1.54,1.44a73.69,73.69,0,0,1,9.42-2.35c.64-.08,1.36-.6,1.92.23s.13,1.34-.07,2l-8.83,25.93-3,8.72c-.19.56-.19,1.29-.89,1.43a5.34,5.34,0,0,1-.05-3.09c.84-7.5,1.81-15,2.57-22.5,0-.35.12-.69.13-1,0-1.66-.57-2.3-2.06-2.16-2.26.22-4.41.77-6.64,1.14a17.9,17.9,0,0,1-2.18.32c-1.86.1-2.17-.27-1.52-2.2.93-2.81,2-5.57,3.08-8.3,1.83-4.6,3.45-9.28,5.33-13.88a6.6,6.6,0,0,1,.82-1.61Z"/><path class="cls-4" d="M544.44,2.69c-1,3.7-2.58,7.08-3.86,10.64-1.64,4.61-3.45,9.25-5.2,13.84-.4,1-.13,1.2.81,1,3.07-.54,6.16-1,9.23-1.52,1.83-.31,2.86.71,2.63,2.66l-3.12,26.58-.42.12a109.47,109.47,0,0,1-.08-11.31q0-6.61.17-13.23c0-1.37-.26-1.78-1.49-1.5-3.61.83-7.25,1.56-10.86,2.34-.64.18-1.31.52-1.89-.34s-.15-1.33.13-1.92l13-26.51C543.68,3.14,543.8,2.57,544.44,2.69Z"/><path class="cls-5" d="M35.18,70.62H52.07a2,2,0,0,1,2,2v.76a2,2,0,0,1-2,2H29.34a2,2,0,0,1-2-2V33.3a2,2,0,0,1,2-2h1.84a2,2,0,0,1,2,2V68.62A2,2,0,0,0,35.18,70.62Z"/><path class="cls-5" d="M64.13,75.38H62.32a2,2,0,0,1-2-2V33.3a2,2,0,0,1,2-2h1.81a2,2,0,0,1,2,2V73.38A2,2,0,0,1,64.13,75.38Z"/><path class="cls-5" d="M109.46,68.33a1.9,1.9,0,0,1-.43,1.22,14.83,14.83,0,0,1-6.39,4.25,29.85,29.85,0,0,1-10.2,1.59A21.26,21.26,0,0,1,82,72.87a17.5,17.5,0,0,1-7-7.19,23.1,23.1,0,0,1-2.57-10.81V51q0-10,5.08-15.44T91.71,30.1q7.53,0,12.13,3.53a14.29,14.29,0,0,1,5,7.47,2.06,2.06,0,0,1-2.11,2.54h-1.94a2.17,2.17,0,0,1-2.1-1.48q-2.25-7.3-11-7.3-6.37,0-9.66,4.1c-2.2,2.74-3.3,6.7-3.33,11.9v3.6q0,7.42,3.71,11.8a12.41,12.41,0,0,0,10,4.38,24.24,24.24,0,0,0,6.25-.72,10.17,10.17,0,0,0,3.62-1.75,2,2,0,0,0,.81-1.56v-7a2.1,2.1,0,0,0-2.19-2H94.19a2.09,2.09,0,0,1-2.18-2v-.75a2.1,2.1,0,0,1,2.18-2h13.09a2.1,2.1,0,0,1,2.18,2Z"/><path class="cls-5" d="M144.2,75.38h-1.65a1.91,1.91,0,0,1-1.79-2V57A1.91,1.91,0,0,0,139,55H122.68a1.9,1.9,0,0,0-1.78,2V73.38a1.91,1.91,0,0,1-1.79,2h-1.62a1.91,1.91,0,0,1-1.79-2V33.3a1.9,1.9,0,0,1,1.79-2h1.62a1.9,1.9,0,0,1,1.79,2v15a1.9,1.9,0,0,0,1.78,2H139a1.91,1.91,0,0,0,1.79-2v-15a1.9,1.9,0,0,1,1.79-2h1.65a1.91,1.91,0,0,1,1.79,2V73.38A1.91,1.91,0,0,1,144.2,75.38Z"/><path class="cls-5" d="M184.31,36.05H174.14a2,2,0,0,0-2,2V73.38a2,2,0,0,1-2,2h-1.78a2,2,0,0,1-2-2V38.05a2,2,0,0,0-2-2H154.22a2,2,0,0,1-2-2V33.3a2,2,0,0,1,2-2h30.09a2,2,0,0,1,2,2v.75A2,2,0,0,1,184.31,36.05Z"/><path class="cls-6" d="M211.64,2h0V103.5L2,103.48V2H211.64m0-2H2A2,2,0,0,0,0,2V103.48a2,2,0,0,0,2,2H211.64a2,2,0,0,0,2-2V2a2,2,0,0,0-2-2Z"/></g></g></svg>