<svg xmlns="http://www.w3.org/2000/svg" xmlns:xlink="http://www.w3.org/1999/xlink" viewBox="0 0 621.58 110.05"><defs><style>.cls-1,.cls-3{fill:none;}.cls-2{clip-path:url(#clip-path);}.cls-3{stroke:teal;stroke-miterlimit:10;}.cls-4{fill:#009387;}.cls-5{fill:#019387;}.cls-6{fill:#009286;}.cls-7{fill:#38b4ac;}.cls-8{fill:#fedb64;}.cls-9{fill:#fec750;}</style><clipPath id="clip-path" transform="translate(-0.48 -0.48)"><rect class="cls-1" y="0.24" width="638.59" height="111"/></clipPath></defs><title>Asset 3</title><g id="Layer_2" data-name="Layer 2"><g id="Layer_1-2" data-name="Layer 1"><g class="cls-2"><path class="cls-3" d="M107.79,110H3.3C1.35,110,1,109.49,1,107.66V3.34C1,1.39,1.43.94,3.32,1c7.44.12,14.91,0,22.35,0h186.4c2.11,0,2.58.51,2.56,2.58V107.87c0,1.72-.45,2.15-2.15,2.15Z" transform="translate(-0.48 -0.48)"/><path class="cls-4" d="M108.32,64.65V72.3a2.94,2.94,0,0,1-.34,1.79,3,3,0,0,1-1.32,1.26c-7.42,3.46-14.89,4.2-22.47.47a17.38,17.38,0,0,1-8.83-10.19,25.88,25.88,0,0,1,2-22.69c4.49-7.52,13.46-10.83,22.72-8.78a19.89,19.89,0,0,1,6.7,2.64,3.26,3.26,0,0,1,1.76,2.41c0,.82.17,1.74-.61,2.29s-1.43-.12-2-.51a20.27,20.27,0,0,0-9.77-3.38A15.43,15.43,0,0,0,79.43,50.12C78,56.69,78.45,63,82.71,68.56c4.9,6.42,14.4,7,20.69,3.8a1.47,1.47,0,0,0,.65-.61,1.43,1.43,0,0,0,.17-.88V59.51c0-1.12-.41-1.39-1.47-1.37H94.12c-1.37,0-2.07-.47-2.07-2s.5-2.09,2.09-2q5.85.12,11.72,0c2,0,2.67.78,2.67,2.58C108.3,59.41,108.32,62,108.32,64.65Z" transform="translate(-0.48 -0.48)"/><path class="cls-4" d="M120.06,56.07V36.24c0-1.66.47-2.35,2.21-2.35s2.22.7,2.19,2.37V51.12c0,1.43.37,2,1.83,2q9-.12,18,0c1.37,0,1.76-.42,1.74-1.77V36.24c0-1.8.68-2.27,2.31-2.27s2.13.62,2.13,2.23V75.84c0,2-.81,2.19-2.35,2.19S146,77.4,146,75.78V58.86c0-1.48-.29-2-2-2H126.29c-1.44,0-2,.41-2,1.86V75.9c0,1.95-.84,2.17-2.37,2.19s-2.07-.71-2-2.27C120.1,69.15,120.06,62.6,120.06,56.07Z" transform="translate(-0.48 -0.48)"/><path class="cls-5" d="M175.23,58V75.31c0,1.72-.28,2.7-2.31,2.66s-2.19-1-2.19-2.6V40.7c0-3,.35-2.66-2.6-2.66h-9.29c-1.51,0-2.17-.55-2.13-2s.64-1.95,2.07-1.95h28.3c1.53,0,2.11.58,2.11,1.95a1.55,1.55,0,0,1-.06.8,1.64,1.64,0,0,1-.41.68A1.85,1.85,0,0,1,188,38a1.8,1.8,0,0,1-.8.06h-9.92c-1.59,0-2.13.33-2.11,2C175.3,46,175.23,52,175.23,58Z" transform="translate(-0.48 -0.48)"/><path class="cls-5" d="M30.81,55.66V36.45c0-1.62.21-2.58,2.18-2.58s2.29.82,2.29,2.52V71.5c0,1.78.37,2.36,2.25,2.28,4.41-.15,8.83,0,13.24,0,1.54,0,2.29.47,2.25,2.12s-.76,1.95-2.21,1.95h-17c-2.38,0-2.93-.51-2.93-2.89C30.79,68.47,30.81,62.05,30.81,55.66Z" transform="translate(-0.48 -0.48)"/><path class="cls-4" d="M64.09,56.09V75.64c0,1.76-.62,2.27-2.26,2.31s-2.17-.72-2.17-2.37V36.2c0-1.74.56-2.31,2.24-2.33s2.19.76,2.17,2.39C64.05,42.89,64.09,49.4,64.09,56.09Z" transform="translate(-0.48 -0.48)"/></g><path class="cls-6" d="M343.75,71.71a1.45,1.45,0,0,1,1.45,1.59q-1.53,14.55-11.43,23.09-10.44,9-27.52,9-18.67,0-29.38-12.57T266.16,58.3V52.36q0-14,4.94-24.68A37.08,37.08,0,0,1,285.2,11.3a39.56,39.56,0,0,1,21.32-5.7q16.82,0,27.08,9,9.76,8.55,11.69,23.65a1.46,1.46,0,0,1-1.45,1.63H326.78a1.46,1.46,0,0,1-1.44-1.32q-.93-8.39-5.11-12.32Q315.73,22,306.52,22q-10,0-15,7.17t-5.1,22.25v7.34q0,15.75,4.77,23t15,7.28q9.27,0,13.84-4.24,4.23-3.91,5.12-11.79a1.45,1.45,0,0,1,1.44-1.32Z" transform="translate(-0.48 -0.48)"/><path class="cls-6" d="M439.7,57.7q0,14.34-5.07,25.15a38.16,38.16,0,0,1-14.51,16.68,42.9,42.9,0,0,1-43.2.07A38.55,38.55,0,0,1,362.25,83,56.89,56.89,0,0,1,357,58.24V53.43q0-14.34,5.17-25.25a38.4,38.4,0,0,1,14.61-16.74,42.79,42.79,0,0,1,43.16,0,38.52,38.52,0,0,1,14.61,16.74q5.16,10.91,5.17,25.19Zm-20.28-4.4q0-15.28-5.47-23.22t-15.61-7.94q-10.08,0-15.55,7.84t-5.53,23V57.7q0,14.88,5.47,23.08T398.47,89q10.08,0,15.48-7.91t5.47-23Z" transform="translate(-0.48 -0.48)"/><path class="cls-6" d="M602,78.58a10.25,10.25,0,0,0-4-8.7q-4-3-14.41-6.41a101.58,101.58,0,0,1-16.48-6.64q-16.55-8.94-16.54-24.08a23.41,23.41,0,0,1,4.43-14,29,29,0,0,1,12.74-9.64A48.05,48.05,0,0,1,586.37,5.6a43.72,43.72,0,0,1,18.55,3.77A29.53,29.53,0,0,1,617.56,20,27.61,27.61,0,0,1,622,34.13a1.46,1.46,0,0,1-1.46,1.49H603.45A1.42,1.42,0,0,1,602,34.31a12.64,12.64,0,0,0-4.17-9.06q-4.2-3.7-11.8-3.71-7.35,0-11.41,3.11a9.78,9.78,0,0,0-4.07,8.17q0,4.74,4.77,7.94t14,6q17.08,5.15,24.89,12.74a25.39,25.39,0,0,1,7.8,19q0,12.6-9.54,19.78t-25.68,7.17a49.72,49.72,0,0,1-20.42-4.1,32.34,32.34,0,0,1-14-11.24,28.31,28.31,0,0,1-4.8-15,1.45,1.45,0,0,1,1.46-1.5h17.17a1.44,1.44,0,0,1,1.45,1.34q.78,14.75,19.18,14.74,7.14,0,11.14-2.9A9.45,9.45,0,0,0,602,78.58Z" transform="translate(-0.48 -0.48)"/><path class="cls-6" d="M455,8.39v94.22a1.46,1.46,0,0,0,1.46,1.46h17.1a1.46,1.46,0,0,0,1.46-1.46V45.33A1.45,1.45,0,0,1,477,44L455.07,7.88A1.45,1.45,0,0,0,455,8.39Z" transform="translate(-0.48 -0.48)"/><path class="cls-6" d="M533.23,8.39a1.46,1.46,0,0,0-1.46-1.46h-17a1.45,1.45,0,0,0-1.45,1.46V65.8A1.42,1.42,0,0,1,512,67.22l21.2,35.32Z" transform="translate(-0.48 -0.48)"/><path class="cls-7" d="M512,67.22a1.39,1.39,0,0,1-1.44-.66L474.68,7.63a1.45,1.45,0,0,0-1.24-.7H455.69a1.45,1.45,0,0,0-1.35,1L476.27,44a1.44,1.44,0,0,1,.68.58l35.84,58.79a1.45,1.45,0,0,0,1.24.7h17.74a1.46,1.46,0,0,0,1.46-1.46v-.07Z" transform="translate(-0.48 -0.48)"/><path class="cls-8" d="M532.76,7.92l.47,0c0,4.26.08,8.52.06,12.81,0,1.16.26,1.33,1.37,1a75.6,75.6,0,0,1,8.28-2.85c.56-.13,1.19-.62,1.69,0s.13,1.06,0,1.58l-7.52,21.74-2.56,7.31c-.16.47-.16,1-.77,1.24a4,4,0,0,1-.08-2.48c.67-6.11,1.46-12.21,2.05-18.34a8,8,0,0,0,.11-.84c0-1.34-.53-1.78-1.84-1.52-2,.4-3.87,1.07-5.84,1.59-.63.19-1.27.35-1.91.48-1.64.27-1.91,0-1.36-1.62.79-2.35,1.7-4.67,2.63-7,1.57-3.89,3-7.82,4.56-11.7a5.64,5.64,0,0,1,.71-1.38Z" transform="translate(-0.48 -0.48)"/><path class="cls-9" d="M532.76,7.92c-.81,3.08-2.2,5.95-3.3,8.94-1.39,3.88-3,7.78-4.44,11.65-.35.87-.11,1,.72.75,2.69-.75,5.41-1.44,8.12-2.17,1.6-.43,2.52.28,2.34,1.88l-2.5,21.67-.37.14a78.59,78.59,0,0,1-.17-9.08q-.1-5.31,0-10.64c0-1.11-.24-1.41-1.33-1.06-3.17,1-6.37,2-9.55,3-.56.21-1.14.56-1.66-.07s-.14-1.06.1-1.56L531.92,8.72C532.1,8.36,532.19,7.89,532.76,7.92Z" transform="translate(-0.48 -0.48)"/><path class="cls-6" d="M250.4,103.3H233.29a1.45,1.45,0,0,1-1.45-1.45V7.63a1.45,1.45,0,0,1,1.45-1.46H250.4a1.45,1.45,0,0,1,1.45,1.46v94.22A1.45,1.45,0,0,1,250.4,103.3Z" transform="translate(-0.48 -0.48)"/></g></g></svg>